# xmcd
#
# Track frame offsets: 
#        300
#        21829
#        39321
#        55678
#        71380
#        96712
#        118963
#        143459
#        164604
#        184989
#        206548
#        229771
#
# Disc length: 3266 seconds
#
# Revision: 2
# Processed by: cddbd v1.5.2PL0 Copyright (c) Steve Scherf et al.
# Submitted via: ExactAudioCopy v1.0b1
#
DISCID=ab0cbe0c
DTITLE=Blues Company - Then And Now
DYEAR=2001
DGENRE=Blues
TTITLE0=Red Blood
TTITLE1=Hey Little Girl
TTITLE2=Invitation To The Blues
TTITLE3=Blues Is My Middle Name
TTITLE4=747
TTITLE5=I Don't Know
TTITLE6=Crippled Mind
TTITLE7=Rattlesnake Blues
TTITLE8=I Just Can't Keep From Cryin
TTITLE9=She's Gone
TTITLE10=The Blues Is Allright
TTITLE11=Having A Ball
EXTD=
EXTT0=
EXTT1=
EXTT2=
EXTT3=
EXTT4=
EXTT5=
EXTT6=
EXTT7=
EXTT8=
EXTT9=
EXTT10=
EXTT11=
PLAYORDER=
